<svg width="24" height="24" viewBox="0 0 24 24" fill="none" xmlns="http://www.w3.org/2000/svg">
<path d="M12 22C17.5228 22 22 17.5228 22 12C22 6.47715 17.5228 2 12 2C6.47715 2 2 6.47715 2 12C2 17.5228 6.47715 22 12 22Z" fill="#7E8FAA"/>
<path d="M14.2983 8.64124L12.0002 10.9393L9.70213 8.64124C9.41222 8.35133 8.93139 8.35133 8.64147 8.64124C8.35156 8.93116 8.35156 9.41199 8.64147 9.7019L10.9396 12L8.64147 14.2981C8.35156 14.588 8.35156 15.0688 8.64147 15.3588C8.93139 15.6487 9.41222 15.6487 9.70213 15.3588L12.0002 13.0607L14.2983 15.3588C14.5882 15.6487 15.0691 15.6487 15.359 15.3588C15.6489 15.0688 15.6489 14.588 15.359 14.2981L13.0609 12L15.359 9.7019C15.6489 9.41199 15.6489 8.93116 15.359 8.64124C15.0691 8.35133 14.5882 8.35133 14.2983 8.64124Z" fill="#C0C8D5"/>
</svg>
