<svg width="16" height="16" viewBox="0 0 16 16" fill="none" xmlns="http://www.w3.org/2000/svg">
<path d="M10.6654 8.59967V11.3997C10.6654 13.733 9.73203 14.6663 7.3987 14.6663H4.5987C2.26536 14.6663 1.33203 13.733 1.33203 11.3997V8.59967C1.33203 6.26634 2.26536 5.33301 4.5987 5.33301H7.3987C9.73203 5.33301 10.6654 6.26634 10.6654 8.59967Z" fill="#00B0AD"/>
<path opacity="0.4" d="M11.3998 1.33301H8.59984C6.29984 1.33301 5.36651 2.24634 5.33984 4.49967H7.39984C10.1998 4.49967 11.4998 5.79967 11.4998 8.59967V10.6597C13.7532 10.633 14.6665 9.69967 14.6665 7.39967V4.59967C14.6665 2.26634 13.7332 1.33301 11.3998 1.33301Z" fill="#00B0AD"/>
</svg>
