<svg width="24" height="24" viewBox="0 0 24 24" fill="none" xmlns="http://www.w3.org/2000/svg">
<path opacity="0.4" d="M20.5 10.19H17.61C15.24 10.19 13.31 8.26 13.31 5.89V3C13.31 2.45 12.86 2 12.31 2H8.07C4.99 2 2.5 4 2.5 7.57V16.43C2.5 20 4.99 22 8.07 22H15.93C19.01 22 21.5 20 21.5 16.43V11.19C21.5 10.64 21.05 10.19 20.5 10.19Z" fill="#2E6297"/>
<path d="M15.7997 2.21048C15.3897 1.80048 14.6797 2.08048 14.6797 2.65048V6.14048C14.6797 7.60048 15.9197 8.81048 17.4297 8.81048C18.3797 8.82048 19.6997 8.82048 20.8297 8.82048C21.3997 8.82048 21.6997 8.15048 21.2997 7.75048C19.8597 6.30048 17.2797 3.69048 15.7997 2.21048Z" fill="#2E6297"/>
<path d="M12.2814 14.72C11.9914 14.43 11.5114 14.43 11.2214 14.72L10.5014 15.44V11.25C10.5014 10.84 10.1614 10.5 9.75141 10.5C9.34141 10.5 9.00141 10.84 9.00141 11.25V15.44L8.28141 14.72C7.99141 14.43 7.51141 14.43 7.22141 14.72C6.93141 15.01 6.93141 15.49 7.22141 15.78L9.22141 17.78C9.23141 17.79 9.24141 17.79 9.24141 17.8C9.30141 17.86 9.38141 17.91 9.46141 17.95C9.56141 17.98 9.65141 18 9.75141 18C9.85141 18 9.94141 17.98 10.0314 17.94C10.1214 17.9 10.2014 17.85 10.2814 17.78L12.2814 15.78C12.5714 15.49 12.5714 15.01 12.2814 14.72Z" fill="#2E6297"/>
</svg>
