<svg width="40" height="40" viewBox="0 0 40 40" fill="none" xmlns="http://www.w3.org/2000/svg">
<rect width="40" height="40" rx="12" fill="#668FC3"/>
<path d="M20.6662 33.3312H9.43955C7.89289 33.3312 6.62622 32.0912 6.62622 30.5712V10.7845C6.62622 7.29119 9.22622 5.70453 12.4129 7.26453L18.3329 10.1712C19.6129 10.7979 20.6662 12.4645 20.6662 13.8779V33.3312Z" stroke="white" stroke-linecap="round" stroke-linejoin="round"/>
<path d="M33.2927 24.0832V29.1232C33.2927 32.0032 31.9594 33.3365 29.0794 33.3365H20.666V17.8965L21.2927 18.0298L27.2927 19.3765L29.9994 19.9765C31.7594 20.3632 33.1994 21.2698 33.2794 23.8298C33.2927 23.9098 33.2927 23.9898 33.2927 24.0832Z" stroke="white" stroke-linecap="round" stroke-linejoin="round"/>
<path d="M11.334 16H15.9607" stroke="white" stroke-linecap="round" stroke-linejoin="round"/>
<path d="M11.334 21.3359H15.9607" stroke="white" stroke-linecap="round" stroke-linejoin="round"/>
<path d="M27.2942 19.375V23.6683C27.2942 25.3217 25.9475 26.6683 24.2942 26.6683C22.6409 26.6683 21.2942 25.3217 21.2942 23.6683V18.0283L27.2942 19.375Z" stroke="white" stroke-linecap="round" stroke-linejoin="round"/>
<path d="M33.2809 23.8274C33.2009 25.4007 31.8942 26.6674 30.2942 26.6674C28.6409 26.6674 27.2942 25.3207 27.2942 23.6674V19.374L30.0009 19.974C31.7609 20.3607 33.2009 21.2674 33.2809 23.8274Z" stroke="white" stroke-linecap="round" stroke-linejoin="round"/>
</svg>
