<svg width="152" height="22" viewBox="0 0 152 22" fill="none" xmlns="http://www.w3.org/2000/svg">
<g style="mix-blend-mode:multiply">
<rect width="152" height="22" rx="11" fill="#747474" fill-opacity="0.1"/>
<circle cx="10" cy="11" r="3" fill="#747474" fill-opacity="0.5"/>
<path d="M22.2373 15.084C22.0773 15.084 21.9493 15.044 21.8533 14.964C21.7573 14.884 21.6773 14.756 21.6133 14.58L18.9973 7.116C18.9253 6.932 18.9333 6.776 19.0213 6.648C19.1173 6.52 19.2733 6.456 19.4893 6.456C19.6413 6.456 19.7613 6.492 19.8493 6.564C19.9373 6.636 20.0093 6.756 20.0653 6.924L22.4773 14.004H22.0453L24.5173 6.948C24.5813 6.78 24.6573 6.656 24.7453 6.576C24.8333 6.496 24.9493 6.456 25.0933 6.456C25.2453 6.456 25.3613 6.496 25.4413 6.576C25.5293 6.656 25.6013 6.784 25.6573 6.96L28.0813 14.004H27.6973L30.1333 6.924C30.1893 6.764 30.2613 6.648 30.3493 6.576C30.4373 6.496 30.5613 6.456 30.7213 6.456C30.9053 6.456 31.0413 6.52 31.1293 6.648C31.2173 6.776 31.2293 6.932 31.1653 7.116L28.5253 14.592C28.4693 14.76 28.3933 14.884 28.2973 14.964C28.2013 15.044 28.0733 15.084 27.9133 15.084C27.7453 15.084 27.6133 15.044 27.5173 14.964C27.4213 14.884 27.3413 14.756 27.2773 14.58L24.9373 7.86H25.2013L22.8493 14.592C22.7853 14.76 22.7053 14.884 22.6093 14.964C22.5213 15.044 22.3973 15.084 22.2373 15.084ZM33.7321 15.108C33.3321 15.108 32.9681 15.028 32.6401 14.868C32.3201 14.708 32.0681 14.492 31.8841 14.22C31.7081 13.948 31.6201 13.644 31.6201 13.308C31.6201 12.876 31.7281 12.536 31.9441 12.288C32.1601 12.04 32.5241 11.864 33.0361 11.76C33.5481 11.648 34.2361 11.592 35.1001 11.592H35.6641V12.288H35.1241C34.5081 12.288 34.0201 12.316 33.6601 12.372C33.3081 12.428 33.0601 12.528 32.9161 12.672C32.7721 12.808 32.7001 13 32.7001 13.248C32.7001 13.56 32.8081 13.816 33.0241 14.016C33.2481 14.216 33.5521 14.316 33.9361 14.316C34.2401 14.316 34.5081 14.244 34.7401 14.1C34.9721 13.948 35.1561 13.748 35.2921 13.5C35.4281 13.244 35.4961 12.952 35.4961 12.624V11.244C35.4961 10.772 35.4001 10.432 35.2081 10.224C35.0161 10.008 34.6921 9.9 34.2361 9.9C33.9721 9.9 33.7001 9.936 33.4201 10.008C33.1401 10.08 32.8481 10.192 32.5441 10.344C32.4241 10.4 32.3201 10.42 32.2321 10.404C32.1441 10.38 32.0721 10.332 32.0161 10.26C31.9681 10.18 31.9401 10.096 31.9321 10.008C31.9321 9.912 31.9521 9.82 31.9921 9.732C32.0401 9.644 32.1201 9.58 32.2321 9.54C32.5841 9.364 32.9321 9.24 33.2761 9.168C33.6281 9.088 33.9561 9.048 34.2601 9.048C34.7801 9.048 35.2081 9.132 35.5441 9.3C35.8801 9.46 36.1321 9.712 36.3001 10.056C36.4681 10.392 36.5521 10.824 36.5521 11.352V14.52C36.5521 14.704 36.5081 14.844 36.4201 14.94C36.3321 15.036 36.2041 15.084 36.0361 15.084C35.8761 15.084 35.7481 15.036 35.6521 14.94C35.5641 14.844 35.5201 14.704 35.5201 14.52V13.668H35.6281C35.5641 13.964 35.4441 14.22 35.2681 14.436C35.0921 14.652 34.8721 14.82 34.6081 14.94C34.3521 15.052 34.0601 15.108 33.7321 15.108ZM38.8105 15.06C38.6425 15.06 38.5105 15.008 38.4145 14.904C38.3185 14.8 38.2705 14.656 38.2705 14.472V9.684C38.2705 9.492 38.3185 9.348 38.4145 9.252C38.5105 9.148 38.6425 9.096 38.8105 9.096C38.9865 9.096 39.1225 9.148 39.2185 9.252C39.3145 9.348 39.3625 9.492 39.3625 9.684V14.472C39.3625 14.656 39.3145 14.8 39.2185 14.904C39.1305 15.008 38.9945 15.06 38.8105 15.06ZM38.8105 7.8C38.5945 7.8 38.4225 7.744 38.2945 7.632C38.1745 7.512 38.1145 7.356 38.1145 7.164C38.1145 6.956 38.1745 6.8 38.2945 6.696C38.4225 6.584 38.5945 6.528 38.8105 6.528C39.0425 6.528 39.2145 6.584 39.3265 6.696C39.4465 6.8 39.5065 6.956 39.5065 7.164C39.5065 7.356 39.4465 7.512 39.3265 7.632C39.2145 7.744 39.0425 7.8 38.8105 7.8ZM43.5422 15.108C43.0702 15.108 42.6742 15.024 42.3542 14.856C42.0422 14.688 41.8062 14.444 41.6462 14.124C41.4942 13.804 41.4182 13.412 41.4182 12.948V9.996H40.6502C40.5062 9.996 40.3942 9.96 40.3142 9.888C40.2342 9.808 40.1942 9.704 40.1942 9.576C40.1942 9.44 40.2342 9.336 40.3142 9.264C40.3942 9.192 40.5062 9.156 40.6502 9.156H41.4182V7.848C41.4182 7.664 41.4662 7.528 41.5622 7.44C41.6582 7.344 41.7942 7.296 41.9702 7.296C42.1462 7.296 42.2782 7.344 42.3662 7.44C42.4622 7.528 42.5102 7.664 42.5102 7.848V9.156H43.9622C44.1142 9.156 44.2302 9.192 44.3102 9.264C44.3902 9.336 44.4302 9.44 44.4302 9.576C44.4302 9.704 44.3902 9.808 44.3102 9.888C44.2302 9.96 44.1142 9.996 43.9622 9.996H42.5102V12.852C42.5102 13.292 42.6022 13.624 42.7862 13.848C42.9702 14.072 43.2742 14.184 43.6982 14.184C43.8502 14.184 43.9782 14.172 44.0822 14.148C44.1862 14.116 44.2782 14.1 44.3582 14.1C44.4302 14.092 44.4902 14.116 44.5382 14.172C44.5942 14.228 44.6222 14.332 44.6222 14.484C44.6222 14.596 44.6022 14.7 44.5622 14.796C44.5302 14.884 44.4622 14.944 44.3582 14.976C44.2622 15.008 44.1342 15.036 43.9742 15.06C43.8142 15.092 43.6702 15.108 43.5422 15.108ZM46.0527 15.06C45.8847 15.06 45.7527 15.008 45.6567 14.904C45.5607 14.8 45.5127 14.656 45.5127 14.472V9.684C45.5127 9.492 45.5607 9.348 45.6567 9.252C45.7527 9.148 45.8847 9.096 46.0527 9.096C46.2287 9.096 46.3647 9.148 46.4607 9.252C46.5567 9.348 46.6047 9.492 46.6047 9.684V14.472C46.6047 14.656 46.5567 14.8 46.4607 14.904C46.3727 15.008 46.2367 15.06 46.0527 15.06ZM46.0527 7.8C45.8367 7.8 45.6647 7.744 45.5367 7.632C45.4167 7.512 45.3567 7.356 45.3567 7.164C45.3567 6.956 45.4167 6.8 45.5367 6.696C45.6647 6.584 45.8367 6.528 46.0527 6.528C46.2847 6.528 46.4567 6.584 46.5687 6.696C46.6887 6.8 46.7487 6.956 46.7487 7.164C46.7487 7.356 46.6887 7.512 46.5687 7.632C46.4567 7.744 46.2847 7.8 46.0527 7.8ZM48.9004 15.084C48.7324 15.084 48.6004 15.036 48.5044 14.94C48.4084 14.844 48.3604 14.704 48.3604 14.52V9.624C48.3604 9.44 48.4084 9.304 48.5044 9.216C48.6004 9.12 48.7324 9.072 48.9004 9.072C49.0684 9.072 49.1964 9.12 49.2844 9.216C49.3804 9.304 49.4284 9.44 49.4284 9.624V10.608L49.2964 10.428C49.4644 9.972 49.7364 9.628 50.1124 9.396C50.4964 9.164 50.9324 9.048 51.4204 9.048C51.8924 9.048 52.2804 9.132 52.5844 9.3C52.8884 9.468 53.1164 9.724 53.2684 10.068C53.4204 10.412 53.4964 10.848 53.4964 11.376V14.52C53.4964 14.704 53.4484 14.844 53.3524 14.94C53.2644 15.036 53.1324 15.084 52.9564 15.084C52.7804 15.084 52.6444 15.036 52.5484 14.94C52.4524 14.844 52.4044 14.704 52.4044 14.52V11.436C52.4044 10.916 52.3044 10.536 52.1044 10.296C51.9044 10.056 51.5844 9.936 51.1444 9.936C50.6324 9.936 50.2204 10.096 49.9084 10.416C49.6044 10.728 49.4524 11.152 49.4524 11.688V14.52C49.4524 14.896 49.2684 15.084 48.9004 15.084ZM57.8556 17.268C57.4236 17.268 57.0036 17.22 56.5956 17.124C56.1956 17.028 55.8316 16.88 55.5036 16.68C55.3996 16.616 55.3276 16.54 55.2876 16.452C55.2556 16.372 55.2476 16.288 55.2636 16.2C55.2876 16.112 55.3276 16.032 55.3836 15.96C55.4476 15.896 55.5196 15.852 55.5996 15.828C55.6876 15.812 55.7756 15.832 55.8636 15.888C56.2156 16.088 56.5516 16.224 56.8716 16.296C57.1916 16.368 57.4956 16.404 57.7836 16.404C58.3516 16.404 58.7756 16.256 59.0556 15.96C59.3436 15.672 59.4876 15.248 59.4876 14.688V13.392H59.5956C59.4836 13.84 59.2316 14.196 58.8396 14.46C58.4556 14.724 58.0076 14.856 57.4956 14.856C56.9676 14.856 56.5076 14.736 56.1156 14.496C55.7236 14.248 55.4196 13.908 55.2036 13.476C54.9876 13.036 54.8796 12.528 54.8796 11.952C54.8796 11.512 54.9396 11.116 55.0596 10.764C55.1876 10.404 55.3636 10.1 55.5876 9.852C55.8196 9.596 56.0956 9.4 56.4156 9.264C56.7356 9.12 57.0956 9.048 57.4956 9.048C58.0156 9.048 58.4676 9.18 58.8516 9.444C59.2356 9.708 59.4836 10.064 59.5956 10.512L59.4636 10.68V9.624C59.4636 9.44 59.5116 9.304 59.6076 9.216C59.7036 9.12 59.8396 9.072 60.0156 9.072C60.1836 9.072 60.3156 9.12 60.4116 9.216C60.5076 9.304 60.5556 9.44 60.5556 9.624V14.544C60.5556 15.448 60.3236 16.128 59.8596 16.584C59.4036 17.04 58.7356 17.268 57.8556 17.268ZM57.7356 13.992C58.0956 13.992 58.4036 13.912 58.6596 13.752C58.9236 13.584 59.1236 13.348 59.2596 13.044C59.4036 12.732 59.4756 12.368 59.4756 11.952C59.4756 11.32 59.3196 10.824 59.0076 10.464C58.6956 10.096 58.2716 9.912 57.7356 9.912C57.3756 9.912 57.0636 9.996 56.7996 10.164C56.5436 10.324 56.3436 10.556 56.1996 10.86C56.0556 11.164 55.9836 11.528 55.9836 11.952C55.9836 12.576 56.1396 13.072 56.4516 13.44C56.7716 13.808 57.1996 13.992 57.7356 13.992ZM66.3226 15.084C66.1466 15.084 66.0106 15.036 65.9146 14.94C65.8186 14.844 65.7706 14.704 65.7706 14.52V9.996H65.0506C64.9066 9.996 64.7946 9.96 64.7146 9.888C64.6346 9.808 64.5946 9.704 64.5946 9.576C64.5946 9.44 64.6346 9.336 64.7146 9.264C64.7946 9.192 64.9066 9.156 65.0506 9.156H66.0706L65.7706 9.444V9C65.7706 8.224 65.9586 7.636 66.3346 7.236C66.7186 6.828 67.2786 6.592 68.0146 6.528L68.3866 6.504C68.5066 6.488 68.6026 6.508 68.6746 6.564C68.7466 6.612 68.7946 6.676 68.8186 6.756C68.8426 6.836 68.8426 6.92 68.8186 7.008C68.8026 7.088 68.7666 7.16 68.7106 7.224C68.6546 7.288 68.5826 7.324 68.4946 7.332L68.2306 7.344C67.7506 7.384 67.4026 7.528 67.1866 7.776C66.9706 8.016 66.8626 8.376 66.8626 8.856V9.336L66.7066 9.156H68.0866C68.2386 9.156 68.3546 9.192 68.4346 9.264C68.5146 9.336 68.5546 9.44 68.5546 9.576C68.5546 9.704 68.5146 9.808 68.4346 9.888C68.3546 9.96 68.2386 9.996 68.0866 9.996H66.8626V14.52C66.8626 14.896 66.6826 15.084 66.3226 15.084ZM71.8327 15.108C71.2567 15.108 70.7567 14.984 70.3327 14.736C69.9087 14.488 69.5807 14.136 69.3487 13.68C69.1167 13.224 69.0007 12.688 69.0007 12.072C69.0007 11.608 69.0647 11.192 69.1927 10.824C69.3287 10.448 69.5207 10.128 69.7687 9.864C70.0167 9.6 70.3127 9.4 70.6567 9.264C71.0087 9.12 71.4007 9.048 71.8327 9.048C72.4087 9.048 72.9087 9.172 73.3327 9.42C73.7567 9.668 74.0847 10.02 74.3167 10.476C74.5487 10.924 74.6647 11.456 74.6647 12.072C74.6647 12.536 74.5967 12.956 74.4607 13.332C74.3327 13.708 74.1447 14.028 73.8967 14.292C73.6487 14.556 73.3487 14.76 72.9967 14.904C72.6527 15.04 72.2647 15.108 71.8327 15.108ZM71.8327 14.244C72.1847 14.244 72.4887 14.16 72.7447 13.992C73.0087 13.824 73.2087 13.58 73.3447 13.26C73.4887 12.94 73.5607 12.544 73.5607 12.072C73.5607 11.368 73.4047 10.832 73.0927 10.464C72.7807 10.096 72.3607 9.912 71.8327 9.912C71.4887 9.912 71.1847 9.996 70.9207 10.164C70.6647 10.324 70.4647 10.564 70.3207 10.884C70.1767 11.204 70.1047 11.6 70.1047 12.072C70.1047 12.776 70.2607 13.316 70.5727 13.692C70.8927 14.06 71.3127 14.244 71.8327 14.244ZM76.6275 15.084C76.4435 15.084 76.3035 15.036 76.2075 14.94C76.1115 14.844 76.0635 14.704 76.0635 14.52V9.624C76.0635 9.44 76.1115 9.304 76.2075 9.216C76.3035 9.12 76.4355 9.072 76.6035 9.072C76.7715 9.072 76.8995 9.12 76.9875 9.216C77.0835 9.304 77.1315 9.44 77.1315 9.624V10.548H77.0115C77.1395 10.068 77.3795 9.704 77.7315 9.456C78.0835 9.208 78.5275 9.068 79.0635 9.036C79.1915 9.028 79.2955 9.06 79.3755 9.132C79.4555 9.196 79.4995 9.308 79.5075 9.468C79.5155 9.62 79.4795 9.744 79.3995 9.84C79.3195 9.928 79.1955 9.98 79.0275 9.996L78.8115 10.008C78.2835 10.064 77.8755 10.236 77.5875 10.524C77.3075 10.812 77.1675 11.208 77.1675 11.712V14.52C77.1675 14.704 77.1195 14.844 77.0235 14.94C76.9355 15.036 76.8035 15.084 76.6275 15.084ZM86.8752 15.084C86.7072 15.084 86.5712 15.048 86.4672 14.976C86.3632 14.896 86.2752 14.776 86.2032 14.616L82.9512 7.188C82.8872 7.036 82.8672 6.908 82.8912 6.804C82.9232 6.692 82.9832 6.608 83.0712 6.552C83.1672 6.488 83.2792 6.456 83.4072 6.456C83.5752 6.456 83.6992 6.492 83.7792 6.564C83.8672 6.636 83.9432 6.744 84.0072 6.888L87.1032 14.076H86.6832L89.7672 6.888C89.8312 6.744 89.9072 6.636 89.9952 6.564C90.0832 6.492 90.2072 6.456 90.3672 6.456C90.4952 6.456 90.5992 6.488 90.6792 6.552C90.7672 6.616 90.8192 6.704 90.8352 6.816C90.8592 6.92 90.8432 7.044 90.7872 7.188L87.5232 14.616C87.4592 14.776 87.3752 14.896 87.2712 14.976C87.1752 15.048 87.0432 15.084 86.8752 15.084ZM93.8924 15.108C93.2604 15.108 92.7164 14.988 92.2604 14.748C91.8124 14.5 91.4644 14.152 91.2164 13.704C90.9684 13.248 90.8444 12.712 90.8444 12.096C90.8444 11.488 90.9644 10.956 91.2044 10.5C91.4524 10.044 91.7884 9.688 92.2124 9.432C92.6444 9.176 93.1364 9.048 93.6884 9.048C94.0804 9.048 94.4324 9.116 94.7444 9.252C95.0644 9.38 95.3364 9.568 95.5604 9.816C95.7844 10.064 95.9524 10.368 96.0644 10.728C96.1844 11.08 96.2444 11.48 96.2444 11.928C96.2444 12.056 96.2044 12.156 96.1244 12.228C96.0524 12.292 95.9444 12.324 95.8004 12.324H91.6964V11.628H95.5244L95.3204 11.796C95.3204 11.38 95.2564 11.028 95.1284 10.74C95.0084 10.444 94.8284 10.22 94.5884 10.068C94.3564 9.916 94.0644 9.84 93.7124 9.84C93.3284 9.84 93.0004 9.932 92.7284 10.116C92.4564 10.292 92.2484 10.544 92.1044 10.872C91.9604 11.192 91.8884 11.564 91.8884 11.988V12.06C91.8884 12.78 92.0604 13.324 92.4044 13.692C92.7484 14.06 93.2444 14.244 93.8924 14.244C94.1484 14.244 94.4084 14.212 94.6724 14.148C94.9444 14.084 95.2044 13.968 95.4524 13.8C95.5724 13.728 95.6804 13.696 95.7764 13.704C95.8804 13.704 95.9644 13.736 96.0284 13.8C96.0924 13.856 96.1324 13.928 96.1484 14.016C96.1644 14.096 96.1524 14.184 96.1124 14.28C96.0724 14.376 95.9964 14.46 95.8844 14.532C95.6204 14.716 95.3044 14.86 94.9364 14.964C94.5764 15.06 94.2284 15.108 93.8924 15.108ZM98.1666 15.084C97.9826 15.084 97.8426 15.036 97.7466 14.94C97.6506 14.844 97.6026 14.704 97.6026 14.52V9.624C97.6026 9.44 97.6506 9.304 97.7466 9.216C97.8426 9.12 97.9746 9.072 98.1426 9.072C98.3106 9.072 98.4386 9.12 98.5266 9.216C98.6226 9.304 98.6706 9.44 98.6706 9.624V10.548H98.5506C98.6786 10.068 98.9186 9.704 99.2706 9.456C99.6226 9.208 100.067 9.068 100.603 9.036C100.731 9.028 100.835 9.06 100.915 9.132C100.995 9.196 101.039 9.308 101.047 9.468C101.055 9.62 101.019 9.744 100.939 9.84C100.859 9.928 100.735 9.98 100.567 9.996L100.351 10.008C99.8226 10.064 99.4146 10.236 99.1266 10.524C98.8466 10.812 98.7066 11.208 98.7066 11.712V14.52C98.7066 14.704 98.6586 14.844 98.5626 14.94C98.4746 15.036 98.3426 15.084 98.1666 15.084ZM102.525 15.06C102.357 15.06 102.225 15.008 102.129 14.904C102.033 14.8 101.985 14.656 101.985 14.472V9.684C101.985 9.492 102.033 9.348 102.129 9.252C102.225 9.148 102.357 9.096 102.525 9.096C102.701 9.096 102.837 9.148 102.933 9.252C103.029 9.348 103.077 9.492 103.077 9.684V14.472C103.077 14.656 103.029 14.8 102.933 14.904C102.845 15.008 102.709 15.06 102.525 15.06ZM102.525 7.8C102.309 7.8 102.137 7.744 102.009 7.632C101.889 7.512 101.829 7.356 101.829 7.164C101.829 6.956 101.889 6.8 102.009 6.696C102.137 6.584 102.309 6.528 102.525 6.528C102.757 6.528 102.929 6.584 103.041 6.696C103.161 6.8 103.221 6.956 103.221 7.164C103.221 7.356 103.161 7.512 103.041 7.632C102.929 7.744 102.757 7.8 102.525 7.8ZM105.721 15.084C105.545 15.084 105.409 15.036 105.313 14.94C105.217 14.844 105.169 14.704 105.169 14.52V9.996H104.449C104.305 9.996 104.193 9.96 104.113 9.888C104.033 9.808 103.993 9.704 103.993 9.576C103.993 9.44 104.033 9.336 104.113 9.264C104.193 9.192 104.305 9.156 104.449 9.156H105.469L105.169 9.444V9C105.169 8.232 105.353 7.648 105.721 7.248C106.097 6.848 106.653 6.612 107.389 6.54L107.737 6.516C107.873 6.5 107.981 6.52 108.061 6.576C108.141 6.624 108.193 6.688 108.217 6.768C108.249 6.848 108.253 6.932 108.229 7.02C108.213 7.108 108.177 7.184 108.121 7.248C108.065 7.312 107.993 7.344 107.905 7.344L107.569 7.368C107.113 7.4 106.781 7.54 106.573 7.788C106.365 8.036 106.261 8.392 106.261 8.856V9.336L106.105 9.156H109.381C109.557 9.156 109.689 9.208 109.777 9.312C109.873 9.408 109.921 9.552 109.921 9.744V14.472C109.921 14.656 109.877 14.8 109.789 14.904C109.701 15.008 109.565 15.06 109.381 15.06C109.205 15.06 109.069 15.008 108.973 14.904C108.877 14.8 108.829 14.656 108.829 14.472V9.996H106.261V14.52C106.261 14.896 106.081 15.084 105.721 15.084ZM109.393 7.8C109.185 7.8 109.021 7.744 108.901 7.632C108.781 7.512 108.721 7.356 108.721 7.164C108.721 6.956 108.781 6.8 108.901 6.696C109.021 6.584 109.185 6.528 109.393 6.528C109.617 6.528 109.785 6.584 109.897 6.696C110.017 6.8 110.077 6.956 110.077 7.164C110.077 7.356 110.017 7.512 109.897 7.632C109.785 7.744 109.617 7.8 109.393 7.8ZM114.209 15.108C113.617 15.108 113.105 14.984 112.673 14.736C112.241 14.48 111.909 14.124 111.677 13.668C111.445 13.204 111.329 12.66 111.329 12.036C111.329 11.572 111.393 11.156 111.521 10.788C111.657 10.42 111.849 10.108 112.097 9.852C112.345 9.588 112.645 9.388 112.997 9.252C113.357 9.116 113.761 9.048 114.209 9.048C114.489 9.048 114.785 9.092 115.097 9.18C115.409 9.268 115.697 9.412 115.961 9.612C116.049 9.676 116.105 9.752 116.129 9.84C116.153 9.92 116.153 10.004 116.129 10.092C116.113 10.18 116.073 10.256 116.009 10.32C115.953 10.376 115.877 10.408 115.781 10.416C115.693 10.424 115.597 10.396 115.493 10.332C115.301 10.188 115.097 10.084 114.881 10.02C114.673 9.956 114.473 9.924 114.281 9.924C113.985 9.924 113.721 9.972 113.489 10.068C113.265 10.164 113.073 10.304 112.913 10.488C112.761 10.664 112.645 10.884 112.565 11.148C112.485 11.404 112.445 11.704 112.445 12.048C112.445 12.728 112.605 13.264 112.925 13.656C113.245 14.04 113.697 14.232 114.281 14.232C114.473 14.232 114.673 14.204 114.881 14.148C115.089 14.084 115.293 13.98 115.493 13.836C115.597 13.772 115.693 13.748 115.781 13.764C115.869 13.772 115.941 13.808 115.997 13.872C116.061 13.928 116.101 14 116.117 14.088C116.133 14.168 116.125 14.252 116.093 14.34C116.069 14.428 116.013 14.5 115.925 14.556C115.669 14.748 115.389 14.888 115.085 14.976C114.781 15.064 114.489 15.108 114.209 15.108ZM119.068 15.108C118.668 15.108 118.304 15.028 117.976 14.868C117.656 14.708 117.404 14.492 117.22 14.22C117.044 13.948 116.956 13.644 116.956 13.308C116.956 12.876 117.064 12.536 117.28 12.288C117.496 12.04 117.86 11.864 118.372 11.76C118.884 11.648 119.572 11.592 120.436 11.592H121V12.288H120.46C119.844 12.288 119.356 12.316 118.996 12.372C118.644 12.428 118.396 12.528 118.252 12.672C118.108 12.808 118.036 13 118.036 13.248C118.036 13.56 118.144 13.816 118.36 14.016C118.584 14.216 118.888 14.316 119.272 14.316C119.576 14.316 119.844 14.244 120.076 14.1C120.308 13.948 120.492 13.748 120.628 13.5C120.764 13.244 120.832 12.952 120.832 12.624V11.244C120.832 10.772 120.736 10.432 120.544 10.224C120.352 10.008 120.028 9.9 119.572 9.9C119.308 9.9 119.036 9.936 118.756 10.008C118.476 10.08 118.184 10.192 117.88 10.344C117.76 10.4 117.656 10.42 117.568 10.404C117.48 10.38 117.408 10.332 117.352 10.26C117.304 10.18 117.276 10.096 117.268 10.008C117.268 9.912 117.288 9.82 117.328 9.732C117.376 9.644 117.456 9.58 117.568 9.54C117.92 9.364 118.268 9.24 118.612 9.168C118.964 9.088 119.292 9.048 119.596 9.048C120.116 9.048 120.544 9.132 120.88 9.3C121.216 9.46 121.468 9.712 121.636 10.056C121.804 10.392 121.888 10.824 121.888 11.352V14.52C121.888 14.704 121.844 14.844 121.756 14.94C121.668 15.036 121.54 15.084 121.372 15.084C121.212 15.084 121.084 15.036 120.988 14.94C120.9 14.844 120.856 14.704 120.856 14.52V13.668H120.964C120.9 13.964 120.78 14.22 120.604 14.436C120.428 14.652 120.208 14.82 119.944 14.94C119.688 15.052 119.396 15.108 119.068 15.108ZM126.03 15.108C125.558 15.108 125.162 15.024 124.842 14.856C124.53 14.688 124.294 14.444 124.134 14.124C123.982 13.804 123.906 13.412 123.906 12.948V9.996H123.138C122.994 9.996 122.882 9.96 122.802 9.888C122.722 9.808 122.682 9.704 122.682 9.576C122.682 9.44 122.722 9.336 122.802 9.264C122.882 9.192 122.994 9.156 123.138 9.156H123.906V7.848C123.906 7.664 123.954 7.528 124.05 7.44C124.146 7.344 124.282 7.296 124.458 7.296C124.634 7.296 124.766 7.344 124.854 7.44C124.95 7.528 124.998 7.664 124.998 7.848V9.156H126.45C126.602 9.156 126.718 9.192 126.798 9.264C126.878 9.336 126.918 9.44 126.918 9.576C126.918 9.704 126.878 9.808 126.798 9.888C126.718 9.96 126.602 9.996 126.45 9.996H124.998V12.852C124.998 13.292 125.09 13.624 125.274 13.848C125.458 14.072 125.762 14.184 126.186 14.184C126.338 14.184 126.466 14.172 126.57 14.148C126.674 14.116 126.766 14.1 126.846 14.1C126.918 14.092 126.978 14.116 127.026 14.172C127.082 14.228 127.11 14.332 127.11 14.484C127.11 14.596 127.09 14.7 127.05 14.796C127.018 14.884 126.95 14.944 126.846 14.976C126.75 15.008 126.622 15.036 126.462 15.06C126.302 15.092 126.158 15.108 126.03 15.108ZM128.541 15.06C128.373 15.06 128.241 15.008 128.145 14.904C128.049 14.8 128.001 14.656 128.001 14.472V9.684C128.001 9.492 128.049 9.348 128.145 9.252C128.241 9.148 128.373 9.096 128.541 9.096C128.717 9.096 128.853 9.148 128.949 9.252C129.045 9.348 129.093 9.492 129.093 9.684V14.472C129.093 14.656 129.045 14.8 128.949 14.904C128.861 15.008 128.725 15.06 128.541 15.06ZM128.541 7.8C128.325 7.8 128.153 7.744 128.025 7.632C127.905 7.512 127.845 7.356 127.845 7.164C127.845 6.956 127.905 6.8 128.025 6.696C128.153 6.584 128.325 6.528 128.541 6.528C128.773 6.528 128.945 6.584 129.057 6.696C129.177 6.8 129.237 6.956 129.237 7.164C129.237 7.356 129.177 7.512 129.057 7.632C128.945 7.744 128.773 7.8 128.541 7.8ZM133.333 15.108C132.757 15.108 132.257 14.984 131.833 14.736C131.409 14.488 131.081 14.136 130.849 13.68C130.617 13.224 130.501 12.688 130.501 12.072C130.501 11.608 130.565 11.192 130.693 10.824C130.829 10.448 131.021 10.128 131.269 9.864C131.517 9.6 131.813 9.4 132.157 9.264C132.509 9.12 132.901 9.048 133.333 9.048C133.909 9.048 134.409 9.172 134.833 9.42C135.257 9.668 135.585 10.02 135.817 10.476C136.049 10.924 136.165 11.456 136.165 12.072C136.165 12.536 136.097 12.956 135.961 13.332C135.833 13.708 135.645 14.028 135.397 14.292C135.149 14.556 134.849 14.76 134.497 14.904C134.153 15.04 133.765 15.108 133.333 15.108ZM133.333 14.244C133.685 14.244 133.989 14.16 134.245 13.992C134.509 13.824 134.709 13.58 134.845 13.26C134.989 12.94 135.061 12.544 135.061 12.072C135.061 11.368 134.905 10.832 134.593 10.464C134.281 10.096 133.861 9.912 133.333 9.912C132.989 9.912 132.685 9.996 132.421 10.164C132.165 10.324 131.965 10.564 131.821 10.884C131.677 11.204 131.605 11.6 131.605 12.072C131.605 12.776 131.761 13.316 132.073 13.692C132.393 14.06 132.813 14.244 133.333 14.244ZM138.104 15.084C137.936 15.084 137.804 15.036 137.708 14.94C137.612 14.844 137.564 14.704 137.564 14.52V9.624C137.564 9.44 137.612 9.304 137.708 9.216C137.804 9.12 137.936 9.072 138.104 9.072C138.272 9.072 138.4 9.12 138.488 9.216C138.584 9.304 138.632 9.44 138.632 9.624V10.608L138.5 10.428C138.668 9.972 138.94 9.628 139.316 9.396C139.7 9.164 140.136 9.048 140.624 9.048C141.096 9.048 141.484 9.132 141.788 9.3C142.092 9.468 142.32 9.724 142.472 10.068C142.624 10.412 142.7 10.848 142.7 11.376V14.52C142.7 14.704 142.652 14.844 142.556 14.94C142.468 15.036 142.336 15.084 142.16 15.084C141.984 15.084 141.848 15.036 141.752 14.94C141.656 14.844 141.608 14.704 141.608 14.52V11.436C141.608 10.916 141.508 10.536 141.308 10.296C141.108 10.056 140.788 9.936 140.348 9.936C139.836 9.936 139.424 10.096 139.112 10.416C138.808 10.728 138.656 11.152 138.656 11.688V14.52C138.656 14.896 138.472 15.084 138.104 15.084Z" fill="#747474"/>
<rect x="0.5" y="0.5" width="151" height="21" rx="10.5" stroke="#747474" stroke-opacity="0.1"/>
</g>
</svg>
