<svg width="61" height="22" viewBox="0 0 61 22" fill="none" xmlns="http://www.w3.org/2000/svg">
<g style="mix-blend-mode:multiply">
<rect width="61" height="22" rx="11" fill="#00B0AD" fill-opacity="0.1"/>
<circle cx="10" cy="11" r="3" fill="#00B0AD" fill-opacity="0.5"/>
<path d="M19.3492 15.084C19.2052 15.084 19.0892 15.052 19.0012 14.988C18.9212 14.924 18.8732 14.836 18.8572 14.724C18.8412 14.612 18.8652 14.488 18.9292 14.352L22.2052 6.936C22.2772 6.768 22.3692 6.648 22.4812 6.576C22.5932 6.496 22.7172 6.456 22.8532 6.456C22.9892 6.456 23.1092 6.496 23.2132 6.576C23.3252 6.648 23.4212 6.768 23.5012 6.936L26.7772 14.352C26.8412 14.488 26.8652 14.616 26.8492 14.736C26.8412 14.848 26.7972 14.936 26.7172 15C26.6372 15.056 26.5252 15.084 26.3812 15.084C26.2212 15.084 26.0932 15.044 25.9972 14.964C25.9012 14.876 25.8172 14.752 25.7452 14.592L24.8932 12.6L25.4092 12.888H20.2732L20.7892 12.6L19.9372 14.592C19.8652 14.768 19.7852 14.896 19.6972 14.976C19.6092 15.048 19.4932 15.084 19.3492 15.084ZM22.8292 7.8L20.9572 12.228L20.6692 11.976H25.0132L24.7372 12.228L22.8532 7.8H22.8292ZM30.5994 15.108C30.0074 15.108 29.4954 14.984 29.0634 14.736C28.6314 14.48 28.2994 14.124 28.0674 13.668C27.8354 13.204 27.7194 12.66 27.7194 12.036C27.7194 11.572 27.7834 11.156 27.9114 10.788C28.0474 10.42 28.2394 10.108 28.4874 9.852C28.7354 9.588 29.0354 9.388 29.3874 9.252C29.7474 9.116 30.1514 9.048 30.5994 9.048C30.8794 9.048 31.1754 9.092 31.4874 9.18C31.7994 9.268 32.0874 9.412 32.3514 9.612C32.4394 9.676 32.4954 9.752 32.5194 9.84C32.5434 9.92 32.5434 10.004 32.5194 10.092C32.5034 10.18 32.4634 10.256 32.3994 10.32C32.3434 10.376 32.2674 10.408 32.1714 10.416C32.0834 10.424 31.9874 10.396 31.8834 10.332C31.6914 10.188 31.4874 10.084 31.2714 10.02C31.0634 9.956 30.8634 9.924 30.6714 9.924C30.3754 9.924 30.1114 9.972 29.8794 10.068C29.6554 10.164 29.4634 10.304 29.3034 10.488C29.1514 10.664 29.0354 10.884 28.9554 11.148C28.8754 11.404 28.8354 11.704 28.8354 12.048C28.8354 12.728 28.9954 13.264 29.3154 13.656C29.6354 14.04 30.0874 14.232 30.6714 14.232C30.8634 14.232 31.0634 14.204 31.2714 14.148C31.4794 14.084 31.6834 13.98 31.8834 13.836C31.9874 13.772 32.0834 13.748 32.1714 13.764C32.2594 13.772 32.3314 13.808 32.3874 13.872C32.4514 13.928 32.4914 14 32.5074 14.088C32.5234 14.168 32.5154 14.252 32.4834 14.34C32.4594 14.428 32.4034 14.5 32.3154 14.556C32.0594 14.748 31.7794 14.888 31.4754 14.976C31.1714 15.064 30.8794 15.108 30.5994 15.108ZM36.0813 15.108C35.6093 15.108 35.2133 15.024 34.8933 14.856C34.5813 14.688 34.3453 14.444 34.1853 14.124C34.0333 13.804 33.9573 13.412 33.9573 12.948V9.996H33.1893C33.0453 9.996 32.9333 9.96 32.8533 9.888C32.7732 9.808 32.7332 9.704 32.7332 9.576C32.7332 9.44 32.7732 9.336 32.8533 9.264C32.9333 9.192 33.0453 9.156 33.1893 9.156H33.9573V7.848C33.9573 7.664 34.0053 7.528 34.1013 7.44C34.1973 7.344 34.3333 7.296 34.5093 7.296C34.6853 7.296 34.8173 7.344 34.9053 7.44C35.0013 7.528 35.0493 7.664 35.0493 7.848V9.156H36.5013C36.6533 9.156 36.7693 9.192 36.8493 9.264C36.9293 9.336 36.9693 9.44 36.9693 9.576C36.9693 9.704 36.9293 9.808 36.8493 9.888C36.7693 9.96 36.6533 9.996 36.5013 9.996H35.0493V12.852C35.0493 13.292 35.1413 13.624 35.3253 13.848C35.5093 14.072 35.8133 14.184 36.2373 14.184C36.3893 14.184 36.5173 14.172 36.6213 14.148C36.7253 14.116 36.8173 14.1 36.8973 14.1C36.9693 14.092 37.0293 14.116 37.0773 14.172C37.1333 14.228 37.1613 14.332 37.1613 14.484C37.1613 14.596 37.1413 14.7 37.1013 14.796C37.0693 14.884 37.0013 14.944 36.8973 14.976C36.8013 15.008 36.6733 15.036 36.5133 15.06C36.3533 15.092 36.2093 15.108 36.0813 15.108ZM38.5918 15.06C38.4238 15.06 38.2918 15.008 38.1958 14.904C38.0998 14.8 38.0518 14.656 38.0518 14.472V9.684C38.0518 9.492 38.0998 9.348 38.1958 9.252C38.2918 9.148 38.4238 9.096 38.5918 9.096C38.7678 9.096 38.9038 9.148 38.9998 9.252C39.0958 9.348 39.1438 9.492 39.1438 9.684V14.472C39.1438 14.656 39.0958 14.8 38.9998 14.904C38.9118 15.008 38.7758 15.06 38.5918 15.06ZM38.5918 7.8C38.3758 7.8 38.2038 7.744 38.0758 7.632C37.9558 7.512 37.8958 7.356 37.8958 7.164C37.8958 6.956 37.9558 6.8 38.0758 6.696C38.2038 6.584 38.3758 6.528 38.5918 6.528C38.8238 6.528 38.9958 6.584 39.1078 6.696C39.2278 6.8 39.2878 6.956 39.2878 7.164C39.2878 7.356 39.2278 7.512 39.1078 7.632C38.9958 7.744 38.8238 7.8 38.5918 7.8ZM43.1194 15.084C42.9674 15.084 42.8354 15.044 42.7234 14.964C42.6114 14.884 42.5154 14.756 42.4354 14.58L40.3954 9.828C40.3394 9.692 40.3194 9.568 40.3354 9.456C40.3514 9.344 40.4034 9.252 40.4914 9.18C40.5874 9.108 40.7154 9.072 40.8754 9.072C41.0114 9.072 41.1194 9.104 41.1994 9.168C41.2794 9.232 41.3554 9.344 41.4274 9.504L43.3114 14.148H42.9754L44.9074 9.504C44.9714 9.344 45.0434 9.232 45.1234 9.168C45.2114 9.104 45.3314 9.072 45.4834 9.072C45.6194 9.072 45.7234 9.108 45.7954 9.18C45.8754 9.252 45.9234 9.344 45.9394 9.456C45.9554 9.568 45.9314 9.688 45.8674 9.816L43.8154 14.58C43.7434 14.756 43.6474 14.884 43.5274 14.964C43.4154 15.044 43.2794 15.084 43.1194 15.084ZM49.7166 15.108C49.0846 15.108 48.5406 14.988 48.0846 14.748C47.6366 14.5 47.2886 14.152 47.0406 13.704C46.7926 13.248 46.6686 12.712 46.6686 12.096C46.6686 11.488 46.7886 10.956 47.0286 10.5C47.2766 10.044 47.6126 9.688 48.0366 9.432C48.4686 9.176 48.9606 9.048 49.5126 9.048C49.9046 9.048 50.2566 9.116 50.5686 9.252C50.8886 9.38 51.1606 9.568 51.3846 9.816C51.6086 10.064 51.7766 10.368 51.8886 10.728C52.0086 11.08 52.0686 11.48 52.0686 11.928C52.0686 12.056 52.0286 12.156 51.9486 12.228C51.8766 12.292 51.7686 12.324 51.6246 12.324H47.5206V11.628H51.3486L51.1446 11.796C51.1446 11.38 51.0806 11.028 50.9526 10.74C50.8326 10.444 50.6526 10.22 50.4126 10.068C50.1806 9.916 49.8886 9.84 49.5366 9.84C49.1526 9.84 48.8246 9.932 48.5526 10.116C48.2806 10.292 48.0726 10.544 47.9286 10.872C47.7846 11.192 47.7126 11.564 47.7126 11.988V12.06C47.7126 12.78 47.8846 13.324 48.2286 13.692C48.5726 14.06 49.0686 14.244 49.7166 14.244C49.9726 14.244 50.2326 14.212 50.4966 14.148C50.7686 14.084 51.0286 13.968 51.2766 13.8C51.3966 13.728 51.5046 13.696 51.6006 13.704C51.7046 13.704 51.7886 13.736 51.8526 13.8C51.9166 13.856 51.9566 13.928 51.9726 14.016C51.9886 14.096 51.9766 14.184 51.9366 14.28C51.8966 14.376 51.8206 14.46 51.7086 14.532C51.4446 14.716 51.1286 14.86 50.7606 14.964C50.4006 15.06 50.0526 15.108 49.7166 15.108Z" fill="#00B0AD"/>
<rect x="0.5" y="0.5" width="60" height="21" rx="10.5" stroke="#00B0AD" stroke-opacity="0.1"/>
</g>
</svg>
