<svg width="72" height="22" viewBox="0 0 72 22" fill="none" xmlns="http://www.w3.org/2000/svg">
<g style="mix-blend-mode:multiply">
<rect width="72" height="22" rx="11" fill="#B00054" fill-opacity="0.1"/>
<circle cx="10" cy="11" r="3" fill="#B00054" fill-opacity="0.5"/>
<path d="M19.8209 15.084C19.6369 15.084 19.4929 15.032 19.3889 14.928C19.2849 14.824 19.2329 14.676 19.2329 14.484V7.14C19.2329 6.948 19.2849 6.8 19.3889 6.696C19.4929 6.592 19.6409 6.54 19.8329 6.54H24.1409C24.3009 6.54 24.4209 6.58 24.5009 6.66C24.5809 6.732 24.6209 6.84 24.6209 6.984C24.6209 7.136 24.5809 7.252 24.5009 7.332C24.4209 7.412 24.3009 7.452 24.1409 7.452H20.3489V10.284H23.9009C24.0529 10.284 24.1689 10.324 24.2489 10.404C24.3289 10.484 24.3689 10.592 24.3689 10.728C24.3689 10.88 24.3289 10.996 24.2489 11.076C24.1689 11.156 24.0529 11.196 23.9009 11.196H20.3489V14.484C20.3489 14.884 20.1729 15.084 19.8209 15.084ZM26.5195 15.06C26.3515 15.06 26.2195 15.008 26.1235 14.904C26.0275 14.8 25.9795 14.656 25.9795 14.472V9.684C25.9795 9.492 26.0275 9.348 26.1235 9.252C26.2195 9.148 26.3515 9.096 26.5195 9.096C26.6955 9.096 26.8315 9.148 26.9275 9.252C27.0235 9.348 27.0715 9.492 27.0715 9.684V14.472C27.0715 14.656 27.0235 14.8 26.9275 14.904C26.8395 15.008 26.7035 15.06 26.5195 15.06ZM26.5195 7.8C26.3035 7.8 26.1315 7.744 26.0035 7.632C25.8835 7.512 25.8235 7.356 25.8235 7.164C25.8235 6.956 25.8835 6.8 26.0035 6.696C26.1315 6.584 26.3035 6.528 26.5195 6.528C26.7515 6.528 26.9235 6.584 27.0355 6.696C27.1555 6.8 27.2155 6.956 27.2155 7.164C27.2155 7.356 27.1555 7.512 27.0355 7.632C26.9235 7.744 26.7515 7.8 26.5195 7.8ZM29.3672 15.084C29.1992 15.084 29.0672 15.036 28.9712 14.94C28.8752 14.844 28.8272 14.704 28.8272 14.52V9.624C28.8272 9.44 28.8752 9.304 28.9712 9.216C29.0672 9.12 29.1992 9.072 29.3672 9.072C29.5352 9.072 29.6632 9.12 29.7512 9.216C29.8472 9.304 29.8952 9.44 29.8952 9.624V10.608L29.7632 10.428C29.9312 9.972 30.2032 9.628 30.5792 9.396C30.9632 9.164 31.3992 9.048 31.8872 9.048C32.3592 9.048 32.7472 9.132 33.0512 9.3C33.3552 9.468 33.5832 9.724 33.7352 10.068C33.8872 10.412 33.9632 10.848 33.9632 11.376V14.52C33.9632 14.704 33.9152 14.844 33.8192 14.94C33.7312 15.036 33.5992 15.084 33.4232 15.084C33.2472 15.084 33.1112 15.036 33.0152 14.94C32.9192 14.844 32.8712 14.704 32.8712 14.52V11.436C32.8712 10.916 32.7712 10.536 32.5712 10.296C32.3712 10.056 32.0512 9.936 31.6112 9.936C31.0992 9.936 30.6872 10.096 30.3752 10.416C30.0712 10.728 29.9192 11.152 29.9192 11.688V14.52C29.9192 14.896 29.7352 15.084 29.3672 15.084ZM36.2344 15.06C36.0664 15.06 35.9344 15.008 35.8384 14.904C35.7424 14.8 35.6944 14.656 35.6944 14.472V9.684C35.6944 9.492 35.7424 9.348 35.8384 9.252C35.9344 9.148 36.0664 9.096 36.2344 9.096C36.4104 9.096 36.5464 9.148 36.6424 9.252C36.7384 9.348 36.7864 9.492 36.7864 9.684V14.472C36.7864 14.656 36.7384 14.8 36.6424 14.904C36.5544 15.008 36.4184 15.06 36.2344 15.06ZM36.2344 7.8C36.0184 7.8 35.8464 7.744 35.7184 7.632C35.5984 7.512 35.5384 7.356 35.5384 7.164C35.5384 6.956 35.5984 6.8 35.7184 6.696C35.8464 6.584 36.0184 6.528 36.2344 6.528C36.4664 6.528 36.6384 6.584 36.7504 6.696C36.8704 6.8 36.9304 6.956 36.9304 7.164C36.9304 7.356 36.8704 7.512 36.7504 7.632C36.6384 7.744 36.4664 7.8 36.2344 7.8ZM40.558 15.108C40.198 15.108 39.834 15.068 39.466 14.988C39.106 14.9 38.766 14.752 38.446 14.544C38.358 14.488 38.294 14.42 38.254 14.34C38.222 14.252 38.21 14.168 38.218 14.088C38.234 14 38.27 13.924 38.326 13.86C38.382 13.796 38.45 13.76 38.53 13.752C38.618 13.736 38.71 13.756 38.806 13.812C39.118 13.988 39.418 14.112 39.706 14.184C40.002 14.256 40.294 14.292 40.582 14.292C41.022 14.292 41.354 14.212 41.578 14.052C41.802 13.892 41.914 13.68 41.914 13.416C41.914 13.192 41.838 13.02 41.686 12.9C41.542 12.772 41.314 12.676 41.002 12.612L39.886 12.384C39.39 12.272 39.014 12.088 38.758 11.832C38.51 11.568 38.386 11.232 38.386 10.824C38.386 10.464 38.482 10.152 38.674 9.888C38.874 9.616 39.15 9.408 39.502 9.264C39.854 9.12 40.258 9.048 40.714 9.048C41.066 9.048 41.398 9.096 41.71 9.192C42.03 9.28 42.318 9.416 42.574 9.6C42.67 9.656 42.73 9.728 42.754 9.816C42.786 9.896 42.79 9.98 42.766 10.068C42.75 10.148 42.714 10.216 42.658 10.272C42.602 10.328 42.53 10.364 42.442 10.38C42.354 10.388 42.258 10.364 42.154 10.308C41.922 10.148 41.682 10.036 41.434 9.972C41.194 9.9 40.954 9.864 40.714 9.864C40.282 9.864 39.954 9.948 39.73 10.116C39.514 10.284 39.406 10.504 39.406 10.776C39.406 10.984 39.47 11.156 39.598 11.292C39.734 11.428 39.946 11.528 40.234 11.592L41.35 11.82C41.87 11.932 42.262 12.112 42.526 12.36C42.79 12.6 42.922 12.928 42.922 13.344C42.922 13.888 42.706 14.32 42.274 14.64C41.85 14.952 41.278 15.108 40.558 15.108ZM44.8828 15.084C44.7148 15.084 44.5828 15.036 44.4868 14.94C44.3908 14.844 44.3428 14.704 44.3428 14.52V7.008C44.3428 6.824 44.3908 6.688 44.4868 6.6C44.5828 6.504 44.7148 6.456 44.8828 6.456C45.0588 6.456 45.1948 6.504 45.2908 6.6C45.3868 6.688 45.4348 6.824 45.4348 7.008V10.428H45.2788C45.4468 9.972 45.7188 9.628 46.0948 9.396C46.4788 9.164 46.9148 9.048 47.4028 9.048C47.8748 9.048 48.2628 9.136 48.5668 9.312C48.8708 9.48 49.0988 9.736 49.2508 10.08C49.4028 10.424 49.4788 10.856 49.4788 11.376V14.52C49.4788 14.704 49.4308 14.844 49.3348 14.94C49.2468 15.036 49.1148 15.084 48.9388 15.084C48.7628 15.084 48.6268 15.036 48.5308 14.94C48.4348 14.844 48.3868 14.704 48.3868 14.52V11.436C48.3868 10.916 48.2868 10.536 48.0868 10.296C47.8868 10.056 47.5668 9.936 47.1268 9.936C46.6148 9.936 46.2028 10.096 45.8908 10.416C45.5868 10.728 45.4348 11.152 45.4348 11.688V14.52C45.4348 14.896 45.2508 15.084 44.8828 15.084ZM53.91 15.108C53.278 15.108 52.734 14.988 52.278 14.748C51.83 14.5 51.482 14.152 51.234 13.704C50.986 13.248 50.862 12.712 50.862 12.096C50.862 11.488 50.982 10.956 51.222 10.5C51.47 10.044 51.806 9.688 52.23 9.432C52.662 9.176 53.154 9.048 53.706 9.048C54.098 9.048 54.45 9.116 54.762 9.252C55.082 9.38 55.354 9.568 55.578 9.816C55.802 10.064 55.97 10.368 56.082 10.728C56.202 11.08 56.262 11.48 56.262 11.928C56.262 12.056 56.222 12.156 56.142 12.228C56.07 12.292 55.962 12.324 55.818 12.324H51.714V11.628H55.542L55.338 11.796C55.338 11.38 55.274 11.028 55.146 10.74C55.026 10.444 54.846 10.22 54.606 10.068C54.374 9.916 54.082 9.84 53.73 9.84C53.346 9.84 53.018 9.932 52.746 10.116C52.474 10.292 52.266 10.544 52.122 10.872C51.978 11.192 51.906 11.564 51.906 11.988V12.06C51.906 12.78 52.078 13.324 52.422 13.692C52.766 14.06 53.262 14.244 53.91 14.244C54.166 14.244 54.426 14.212 54.69 14.148C54.962 14.084 55.222 13.968 55.47 13.8C55.59 13.728 55.698 13.696 55.794 13.704C55.898 13.704 55.982 13.736 56.046 13.8C56.11 13.856 56.15 13.928 56.166 14.016C56.182 14.096 56.17 14.184 56.13 14.28C56.09 14.376 56.014 14.46 55.902 14.532C55.638 14.716 55.322 14.86 54.954 14.964C54.594 15.06 54.246 15.108 53.91 15.108ZM59.8521 15.108C59.3401 15.108 58.8881 14.988 58.4961 14.748C58.1121 14.5 57.8121 14.148 57.5961 13.692C57.3801 13.228 57.2721 12.688 57.2721 12.072C57.2721 11.448 57.3761 10.912 57.5841 10.464C57.8001 10.008 58.1001 9.66 58.4841 9.42C58.8761 9.172 59.3321 9.048 59.8521 9.048C60.3721 9.048 60.8201 9.18 61.1961 9.444C61.5721 9.7 61.8241 10.044 61.9521 10.476H61.8201V7.008C61.8201 6.824 61.8641 6.688 61.9521 6.6C62.0481 6.504 62.1841 6.456 62.3601 6.456C62.5361 6.456 62.6721 6.504 62.7681 6.6C62.8641 6.688 62.9121 6.824 62.9121 7.008V14.52C62.9121 14.704 62.8641 14.844 62.7681 14.94C62.6721 15.036 62.5361 15.084 62.3601 15.084C62.1921 15.084 62.0601 15.036 61.9641 14.94C61.8681 14.844 61.8201 14.704 61.8201 14.52V13.428L61.9521 13.644C61.8321 14.092 61.5801 14.448 61.1961 14.712C60.8201 14.976 60.3721 15.108 59.8521 15.108ZM60.1041 14.244C60.4561 14.244 60.7601 14.16 61.0161 13.992C61.2801 13.824 61.4801 13.58 61.6161 13.26C61.7601 12.94 61.8321 12.544 61.8321 12.072C61.8321 11.368 61.6761 10.832 61.3641 10.464C61.0521 10.096 60.6321 9.912 60.1041 9.912C59.7601 9.912 59.4561 9.996 59.1921 10.164C58.9361 10.324 58.7361 10.564 58.5921 10.884C58.4481 11.204 58.3761 11.6 58.3761 12.072C58.3761 12.776 58.5321 13.316 58.8441 13.692C59.1641 14.06 59.5841 14.244 60.1041 14.244Z" fill="#B00054"/>
<rect x="0.5" y="0.5" width="71" height="21" rx="10.5" stroke="#B00054" stroke-opacity="0.1"/>
</g>
</svg>
