<svg width="17" height="16" viewBox="0 0 17 16" fill="none" xmlns="http://www.w3.org/2000/svg">
<path d="M13.847 7.13361L11.9804 8.31361L8.20703 4.54027L9.38036 2.67361C9.92703 1.81361 11.0204 1.77361 11.827 2.57361L13.947 4.69361C14.7004 5.44694 14.6537 6.62027 13.847 7.13361Z" fill="#00B0AD"/>
<path opacity="0.4" d="M10.3069 13.3L4.5002 13.9867C4.1002 14.0333 3.7402 13.9733 3.4402 13.8267C3.11353 13.6667 2.8602 13.4133 2.7002 13.0867C2.55353 12.7867 2.5002 12.4267 2.5402 12.0333L3.23353 6.21999C3.4002 4.76666 3.9402 4.29332 5.47353 4.37999L8.2202 4.54666L11.9935 8.31999L12.1535 11.0667C12.2935 12.6 11.7669 13.1333 10.3069 13.3Z" fill="#00B0AD"/>
<path d="M5.81807 11.4338L3.43141 13.8204C3.10474 13.6604 2.85141 13.4071 2.69141 13.0804L5.08474 10.6871C5.29141 10.4871 5.62474 10.4871 5.82474 10.6871C6.03141 10.9004 6.03141 11.2271 5.81807 11.4338Z" fill="#00B0AD"/>
</svg>
