<svg width="85" height="22" viewBox="0 0 85 22" fill="none" xmlns="http://www.w3.org/2000/svg">
<g style="mix-blend-mode:multiply">
<rect width="85" height="22" rx="11" fill="#747474" fill-opacity="0.1"/>
<circle cx="10" cy="11" r="3" fill="#747474" fill-opacity="0.5"/>
<path d="M19.6697 15.084C19.4937 15.084 19.3577 15.036 19.2617 14.94C19.1657 14.836 19.1177 14.692 19.1177 14.508V7.104C19.1177 6.92 19.1657 6.78 19.2617 6.684C19.3657 6.588 19.5057 6.54 19.6817 6.54H22.5377C23.4497 6.54 24.1497 6.764 24.6377 7.212C25.1337 7.66 25.3817 8.288 25.3817 9.096C25.3817 9.912 25.1337 10.544 24.6377 10.992C24.1497 11.44 23.4497 11.664 22.5377 11.664H20.2337V14.508C20.2337 14.692 20.1857 14.836 20.0897 14.94C20.0017 15.036 19.8617 15.084 19.6697 15.084ZM20.2337 10.764H22.3937C23.0177 10.764 23.4857 10.624 23.7977 10.344C24.1177 10.056 24.2777 9.64 24.2777 9.096C24.2777 8.552 24.1177 8.144 23.7977 7.872C23.4857 7.592 23.0177 7.452 22.3937 7.452H20.2337V10.764ZM27.0611 15.084C26.8771 15.084 26.7371 15.036 26.6411 14.94C26.5451 14.844 26.4971 14.704 26.4971 14.52V9.624C26.4971 9.44 26.5451 9.304 26.6411 9.216C26.7371 9.12 26.8691 9.072 27.0371 9.072C27.2051 9.072 27.3331 9.12 27.4211 9.216C27.5171 9.304 27.5651 9.44 27.5651 9.624V10.548H27.4451C27.5731 10.068 27.8131 9.704 28.1651 9.456C28.5171 9.208 28.9611 9.068 29.4971 9.036C29.6251 9.028 29.7291 9.06 29.8091 9.132C29.8891 9.196 29.9331 9.308 29.9411 9.468C29.9491 9.62 29.9131 9.744 29.8331 9.84C29.7531 9.928 29.6291 9.98 29.4611 9.996L29.2451 10.008C28.7171 10.064 28.3091 10.236 28.0211 10.524C27.7411 10.812 27.6011 11.208 27.6011 11.712V14.52C27.6011 14.704 27.5531 14.844 27.4571 14.94C27.3691 15.036 27.2371 15.084 27.0611 15.084ZM33.2819 15.108C32.7059 15.108 32.2059 14.984 31.7819 14.736C31.3579 14.488 31.0299 14.136 30.7979 13.68C30.5659 13.224 30.4499 12.688 30.4499 12.072C30.4499 11.608 30.5139 11.192 30.6419 10.824C30.7779 10.448 30.9699 10.128 31.2179 9.864C31.4659 9.6 31.7619 9.4 32.1059 9.264C32.4579 9.12 32.8499 9.048 33.2819 9.048C33.8579 9.048 34.3579 9.172 34.7819 9.42C35.2059 9.668 35.5339 10.02 35.7659 10.476C35.9979 10.924 36.1139 11.456 36.1139 12.072C36.1139 12.536 36.0459 12.956 35.9099 13.332C35.7819 13.708 35.5939 14.028 35.3459 14.292C35.0979 14.556 34.7979 14.76 34.4459 14.904C34.1019 15.04 33.7139 15.108 33.2819 15.108ZM33.2819 14.244C33.6339 14.244 33.9379 14.16 34.1939 13.992C34.4579 13.824 34.6579 13.58 34.7939 13.26C34.9379 12.94 35.0099 12.544 35.0099 12.072C35.0099 11.368 34.8539 10.832 34.5419 10.464C34.2299 10.096 33.8099 9.912 33.2819 9.912C32.9379 9.912 32.6339 9.996 32.3699 10.164C32.1139 10.324 31.9139 10.564 31.7699 10.884C31.6259 11.204 31.5539 11.6 31.5539 12.072C31.5539 12.776 31.7099 13.316 32.0219 13.692C32.3419 14.06 32.7619 14.244 33.2819 14.244ZM40.0447 15.108C39.4527 15.108 38.9407 14.984 38.5087 14.736C38.0767 14.48 37.7447 14.124 37.5127 13.668C37.2807 13.204 37.1647 12.66 37.1647 12.036C37.1647 11.572 37.2287 11.156 37.3567 10.788C37.4927 10.42 37.6847 10.108 37.9327 9.852C38.1807 9.588 38.4807 9.388 38.8327 9.252C39.1927 9.116 39.5967 9.048 40.0447 9.048C40.3247 9.048 40.6207 9.092 40.9327 9.18C41.2447 9.268 41.5327 9.412 41.7967 9.612C41.8847 9.676 41.9407 9.752 41.9647 9.84C41.9887 9.92 41.9887 10.004 41.9647 10.092C41.9487 10.18 41.9087 10.256 41.8447 10.32C41.7887 10.376 41.7127 10.408 41.6167 10.416C41.5287 10.424 41.4327 10.396 41.3287 10.332C41.1367 10.188 40.9327 10.084 40.7167 10.02C40.5087 9.956 40.3087 9.924 40.1167 9.924C39.8207 9.924 39.5567 9.972 39.3247 10.068C39.1007 10.164 38.9087 10.304 38.7487 10.488C38.5967 10.664 38.4807 10.884 38.4007 11.148C38.3207 11.404 38.2807 11.704 38.2807 12.048C38.2807 12.728 38.4407 13.264 38.7607 13.656C39.0807 14.04 39.5327 14.232 40.1167 14.232C40.3087 14.232 40.5087 14.204 40.7167 14.148C40.9247 14.084 41.1287 13.98 41.3287 13.836C41.4327 13.772 41.5287 13.748 41.6167 13.764C41.7047 13.772 41.7767 13.808 41.8327 13.872C41.8967 13.928 41.9367 14 41.9527 14.088C41.9687 14.168 41.9607 14.252 41.9287 14.34C41.9047 14.428 41.8487 14.5 41.7607 14.556C41.5047 14.748 41.2247 14.888 40.9207 14.976C40.6167 15.064 40.3247 15.108 40.0447 15.108ZM45.6737 15.108C45.0417 15.108 44.4977 14.988 44.0417 14.748C43.5937 14.5 43.2457 14.152 42.9977 13.704C42.7497 13.248 42.6257 12.712 42.6257 12.096C42.6257 11.488 42.7457 10.956 42.9857 10.5C43.2337 10.044 43.5697 9.688 43.9937 9.432C44.4257 9.176 44.9177 9.048 45.4697 9.048C45.8617 9.048 46.2137 9.116 46.5257 9.252C46.8457 9.38 47.1177 9.568 47.3417 9.816C47.5657 10.064 47.7337 10.368 47.8457 10.728C47.9657 11.08 48.0257 11.48 48.0257 11.928C48.0257 12.056 47.9857 12.156 47.9057 12.228C47.8337 12.292 47.7257 12.324 47.5817 12.324H43.4777V11.628H47.3057L47.1017 11.796C47.1017 11.38 47.0377 11.028 46.9097 10.74C46.7897 10.444 46.6097 10.22 46.3697 10.068C46.1377 9.916 45.8457 9.84 45.4937 9.84C45.1097 9.84 44.7817 9.932 44.5097 10.116C44.2377 10.292 44.0297 10.544 43.8857 10.872C43.7417 11.192 43.6697 11.564 43.6697 11.988V12.06C43.6697 12.78 43.8417 13.324 44.1857 13.692C44.5297 14.06 45.0257 14.244 45.6737 14.244C45.9297 14.244 46.1897 14.212 46.4537 14.148C46.7257 14.084 46.9857 13.968 47.2337 13.8C47.3537 13.728 47.4617 13.696 47.5577 13.704C47.6617 13.704 47.7457 13.736 47.8097 13.8C47.8737 13.856 47.9137 13.928 47.9297 14.016C47.9457 14.096 47.9337 14.184 47.8937 14.28C47.8537 14.376 47.7777 14.46 47.6657 14.532C47.4017 14.716 47.0857 14.86 46.7177 14.964C46.3577 15.06 46.0097 15.108 45.6737 15.108ZM51.3998 15.108C51.0398 15.108 50.6758 15.068 50.3078 14.988C49.9478 14.9 49.6078 14.752 49.2878 14.544C49.1998 14.488 49.1358 14.42 49.0958 14.34C49.0638 14.252 49.0518 14.168 49.0598 14.088C49.0758 14 49.1118 13.924 49.1678 13.86C49.2238 13.796 49.2918 13.76 49.3718 13.752C49.4598 13.736 49.5518 13.756 49.6478 13.812C49.9598 13.988 50.2598 14.112 50.5478 14.184C50.8438 14.256 51.1358 14.292 51.4238 14.292C51.8638 14.292 52.1958 14.212 52.4198 14.052C52.6438 13.892 52.7558 13.68 52.7558 13.416C52.7558 13.192 52.6798 13.02 52.5278 12.9C52.3838 12.772 52.1558 12.676 51.8438 12.612L50.7278 12.384C50.2318 12.272 49.8558 12.088 49.5998 11.832C49.3518 11.568 49.2278 11.232 49.2278 10.824C49.2278 10.464 49.3238 10.152 49.5158 9.888C49.7158 9.616 49.9918 9.408 50.3438 9.264C50.6958 9.12 51.0998 9.048 51.5558 9.048C51.9078 9.048 52.2398 9.096 52.5518 9.192C52.8718 9.28 53.1598 9.416 53.4158 9.6C53.5118 9.656 53.5718 9.728 53.5958 9.816C53.6278 9.896 53.6318 9.98 53.6078 10.068C53.5918 10.148 53.5558 10.216 53.4998 10.272C53.4438 10.328 53.3718 10.364 53.2838 10.38C53.1958 10.388 53.0998 10.364 52.9958 10.308C52.7638 10.148 52.5238 10.036 52.2758 9.972C52.0358 9.9 51.7958 9.864 51.5558 9.864C51.1238 9.864 50.7958 9.948 50.5718 10.116C50.3558 10.284 50.2478 10.504 50.2478 10.776C50.2478 10.984 50.3118 11.156 50.4398 11.292C50.5758 11.428 50.7878 11.528 51.0758 11.592L52.1918 11.82C52.7118 11.932 53.1038 12.112 53.3678 12.36C53.6318 12.6 53.7638 12.928 53.7638 13.344C53.7638 13.888 53.5478 14.32 53.1158 14.64C52.6918 14.952 52.1198 15.108 51.3998 15.108ZM57.2006 15.108C56.8406 15.108 56.4766 15.068 56.1086 14.988C55.7486 14.9 55.4086 14.752 55.0886 14.544C55.0006 14.488 54.9366 14.42 54.8966 14.34C54.8646 14.252 54.8526 14.168 54.8606 14.088C54.8766 14 54.9126 13.924 54.9686 13.86C55.0246 13.796 55.0926 13.76 55.1726 13.752C55.2606 13.736 55.3526 13.756 55.4486 13.812C55.7606 13.988 56.0606 14.112 56.3486 14.184C56.6446 14.256 56.9366 14.292 57.2246 14.292C57.6646 14.292 57.9966 14.212 58.2206 14.052C58.4446 13.892 58.5566 13.68 58.5566 13.416C58.5566 13.192 58.4806 13.02 58.3286 12.9C58.1846 12.772 57.9566 12.676 57.6446 12.612L56.5286 12.384C56.0326 12.272 55.6566 12.088 55.4006 11.832C55.1526 11.568 55.0286 11.232 55.0286 10.824C55.0286 10.464 55.1246 10.152 55.3166 9.888C55.5166 9.616 55.7926 9.408 56.1446 9.264C56.4966 9.12 56.9006 9.048 57.3566 9.048C57.7086 9.048 58.0406 9.096 58.3526 9.192C58.6726 9.28 58.9606 9.416 59.2166 9.6C59.3126 9.656 59.3726 9.728 59.3966 9.816C59.4286 9.896 59.4326 9.98 59.4086 10.068C59.3926 10.148 59.3566 10.216 59.3006 10.272C59.2446 10.328 59.1726 10.364 59.0846 10.38C58.9966 10.388 58.9006 10.364 58.7966 10.308C58.5646 10.148 58.3246 10.036 58.0766 9.972C57.8366 9.9 57.5966 9.864 57.3566 9.864C56.9246 9.864 56.5966 9.948 56.3726 10.116C56.1566 10.284 56.0486 10.504 56.0486 10.776C56.0486 10.984 56.1126 11.156 56.2406 11.292C56.3766 11.428 56.5886 11.528 56.8766 11.592L57.9926 11.82C58.5126 11.932 58.9046 12.112 59.1686 12.36C59.4326 12.6 59.5646 12.928 59.5646 13.344C59.5646 13.888 59.3486 14.32 58.9166 14.64C58.4926 14.952 57.9206 15.108 57.2006 15.108ZM61.5254 15.06C61.3574 15.06 61.2254 15.008 61.1294 14.904C61.0334 14.8 60.9854 14.656 60.9854 14.472V9.684C60.9854 9.492 61.0334 9.348 61.1294 9.252C61.2254 9.148 61.3574 9.096 61.5254 9.096C61.7014 9.096 61.8374 9.148 61.9334 9.252C62.0294 9.348 62.0774 9.492 62.0774 9.684V14.472C62.0774 14.656 62.0294 14.8 61.9334 14.904C61.8454 15.008 61.7094 15.06 61.5254 15.06ZM61.5254 7.8C61.3094 7.8 61.1374 7.744 61.0094 7.632C60.8894 7.512 60.8294 7.356 60.8294 7.164C60.8294 6.956 60.8894 6.8 61.0094 6.696C61.1374 6.584 61.3094 6.528 61.5254 6.528C61.7574 6.528 61.9294 6.584 62.0414 6.696C62.1614 6.8 62.2214 6.956 62.2214 7.164C62.2214 7.356 62.1614 7.512 62.0414 7.632C61.9294 7.744 61.7574 7.8 61.5254 7.8ZM64.373 15.084C64.205 15.084 64.073 15.036 63.977 14.94C63.881 14.844 63.833 14.704 63.833 14.52V9.624C63.833 9.44 63.881 9.304 63.977 9.216C64.073 9.12 64.205 9.072 64.373 9.072C64.541 9.072 64.669 9.12 64.757 9.216C64.853 9.304 64.901 9.44 64.901 9.624V10.608L64.769 10.428C64.937 9.972 65.209 9.628 65.585 9.396C65.969 9.164 66.405 9.048 66.893 9.048C67.365 9.048 67.753 9.132 68.057 9.3C68.361 9.468 68.589 9.724 68.741 10.068C68.893 10.412 68.969 10.848 68.969 11.376V14.52C68.969 14.704 68.921 14.844 68.825 14.94C68.737 15.036 68.605 15.084 68.429 15.084C68.253 15.084 68.117 15.036 68.021 14.94C67.925 14.844 67.877 14.704 67.877 14.52V11.436C67.877 10.916 67.777 10.536 67.577 10.296C67.377 10.056 67.057 9.936 66.617 9.936C66.105 9.936 65.693 10.096 65.381 10.416C65.077 10.728 64.925 11.152 64.925 11.688V14.52C64.925 14.896 64.741 15.084 64.373 15.084ZM73.3282 17.268C72.8962 17.268 72.4762 17.22 72.0682 17.124C71.6682 17.028 71.3042 16.88 70.9762 16.68C70.8722 16.616 70.8002 16.54 70.7602 16.452C70.7282 16.372 70.7202 16.288 70.7362 16.2C70.7602 16.112 70.8002 16.032 70.8562 15.96C70.9202 15.896 70.9922 15.852 71.0722 15.828C71.1602 15.812 71.2482 15.832 71.3362 15.888C71.6882 16.088 72.0242 16.224 72.3442 16.296C72.6642 16.368 72.9682 16.404 73.2562 16.404C73.8242 16.404 74.2482 16.256 74.5282 15.96C74.8162 15.672 74.9602 15.248 74.9602 14.688V13.392H75.0682C74.9562 13.84 74.7042 14.196 74.3122 14.46C73.9282 14.724 73.4802 14.856 72.9682 14.856C72.4402 14.856 71.9802 14.736 71.5882 14.496C71.1962 14.248 70.8922 13.908 70.6762 13.476C70.4602 13.036 70.3522 12.528 70.3522 11.952C70.3522 11.512 70.4122 11.116 70.5322 10.764C70.6602 10.404 70.8362 10.1 71.0602 9.852C71.2922 9.596 71.5682 9.4 71.8882 9.264C72.2082 9.12 72.5682 9.048 72.9682 9.048C73.4882 9.048 73.9402 9.18 74.3242 9.444C74.7082 9.708 74.9562 10.064 75.0682 10.512L74.9362 10.68V9.624C74.9362 9.44 74.9842 9.304 75.0802 9.216C75.1762 9.12 75.3122 9.072 75.4882 9.072C75.6562 9.072 75.7882 9.12 75.8842 9.216C75.9802 9.304 76.0282 9.44 76.0282 9.624V14.544C76.0282 15.448 75.7962 16.128 75.3322 16.584C74.8762 17.04 74.2082 17.268 73.3282 17.268ZM73.2082 13.992C73.5682 13.992 73.8762 13.912 74.1322 13.752C74.3962 13.584 74.5962 13.348 74.7322 13.044C74.8762 12.732 74.9482 12.368 74.9482 11.952C74.9482 11.32 74.7922 10.824 74.4802 10.464C74.1682 10.096 73.7442 9.912 73.2082 9.912C72.8482 9.912 72.5362 9.996 72.2722 10.164C72.0162 10.324 71.8162 10.556 71.6722 10.86C71.5282 11.164 71.4562 11.528 71.4562 11.952C71.4562 12.576 71.6122 13.072 71.9242 13.44C72.2442 13.808 72.6722 13.992 73.2082 13.992Z" fill="#747474"/>
<rect x="0.5" y="0.5" width="84" height="21" rx="10.5" stroke="#747474" stroke-opacity="0.1"/>
</g>
</svg>
