<svg width="24" height="24" viewBox="0 0 24 24" fill="none" xmlns="http://www.w3.org/2000/svg">
<path opacity="0.4" d="M16.1898 2.33008H7.81976C4.17976 2.33008 2.00977 4.50008 2.00977 8.14008V16.5101C2.00977 20.1501 4.17976 22.3201 7.81976 22.3201H16.1898C19.8298 22.3201 21.9998 20.1501 21.9998 16.5101V8.15008C21.9998 4.51008 19.8298 2.33008 16.1898 2.33008Z" fill="#00B0AD"/>
<path d="M16.3999 8.20996L12.6399 6.17996C12.2399 5.96996 11.7699 5.96996 11.3699 6.17996L7.60989 8.20996C7.33989 8.35996 7.16992 8.64996 7.16992 8.97996C7.16992 9.30996 7.33989 9.59996 7.60989 9.74996L11.3699 11.78C11.5699 11.89 11.7899 11.94 12.0099 11.94C12.2299 11.94 12.4499 11.89 12.6499 11.78L16.4099 9.74996C16.6799 9.59996 16.8499 9.30996 16.8499 8.97996C16.8399 8.64996 16.6699 8.35996 16.3999 8.20996Z" fill="#00B0AD"/>
<path d="M10.7402 12.4704L7.24023 10.7204C6.97023 10.5904 6.66024 10.6004 6.40024 10.7604C6.14024 10.9204 5.99023 11.1904 5.99023 11.4904V14.8004C5.99023 15.3704 6.31025 15.8904 6.82025 16.1404L10.3203 17.8904C10.4403 17.9504 10.5702 17.9804 10.7102 17.9804C10.8702 17.9804 11.0202 17.9404 11.1602 17.8504C11.4202 17.6904 11.5703 17.4204 11.5703 17.1204V13.8104C11.5703 13.2404 11.2602 12.7304 10.7402 12.4704Z" fill="#00B0AD"/>
<path d="M17.5899 10.7604C17.3299 10.6004 17.0199 10.5904 16.7499 10.7204L13.2499 12.4704C12.7399 12.7304 12.4199 13.2404 12.4199 13.8104V17.1204C12.4199 17.4204 12.5699 17.6904 12.8299 17.8504C12.9699 17.9404 13.1199 17.9804 13.2799 17.9804C13.4099 17.9804 13.5399 17.9504 13.6699 17.8904L17.1699 16.1404C17.6799 15.8804 17.9999 15.3704 17.9999 14.8004V11.4904C17.9999 11.1904 17.8499 10.9204 17.5899 10.7604Z" fill="#00B0AD"/>
</svg>
