<svg width="25" height="24" viewBox="0 0 25 24" fill="none" xmlns="http://www.w3.org/2000/svg">
<path opacity="0.4" d="M16.6898 2.33008H8.31976C4.67976 2.33008 2.50977 4.50008 2.50977 8.14008V16.5101C2.50977 20.1501 4.67976 22.3201 8.31976 22.3201H16.6898C20.3298 22.3201 22.4998 20.1501 22.4998 16.5101V8.15008C22.4998 4.51008 20.3298 2.33008 16.6898 2.33008Z" fill="white"/>
<path d="M16.8999 8.20996L13.1399 6.17996C12.7399 5.96996 12.2699 5.96996 11.8699 6.17996L8.10989 8.20996C7.83989 8.35996 7.66992 8.64996 7.66992 8.97996C7.66992 9.30996 7.83989 9.59996 8.10989 9.74996L11.8699 11.78C12.0699 11.89 12.2899 11.94 12.5099 11.94C12.7299 11.94 12.9499 11.89 13.1499 11.78L16.9099 9.74996C17.1799 9.59996 17.3499 9.30996 17.3499 8.97996C17.3399 8.64996 17.1699 8.35996 16.8999 8.20996Z" fill="white"/>
<path d="M11.2402 12.4704L7.74023 10.7204C7.47023 10.5904 7.16024 10.6004 6.90024 10.7604C6.64024 10.9204 6.49023 11.1904 6.49023 11.4904V14.8004C6.49023 15.3704 6.81025 15.8904 7.32025 16.1404L10.8203 17.8904C10.9403 17.9504 11.0702 17.9804 11.2102 17.9804C11.3702 17.9804 11.5202 17.9404 11.6602 17.8504C11.9202 17.6904 12.0703 17.4204 12.0703 17.1204V13.8104C12.0703 13.2404 11.7602 12.7304 11.2402 12.4704Z" fill="white"/>
<path d="M18.0899 10.7604C17.8299 10.6004 17.5199 10.5904 17.2499 10.7204L13.7499 12.4704C13.2399 12.7304 12.9199 13.2404 12.9199 13.8104V17.1204C12.9199 17.4204 13.0699 17.6904 13.3299 17.8504C13.4699 17.9404 13.6199 17.9804 13.7799 17.9804C13.9099 17.9804 14.0399 17.9504 14.1699 17.8904L17.6699 16.1404C18.1799 15.8804 18.4999 15.3704 18.4999 14.8004V11.4904C18.4999 11.1904 18.3499 10.9204 18.0899 10.7604Z" fill="white"/>
</svg>
