<svg width="64" height="22" viewBox="0 0 64 22" fill="none" xmlns="http://www.w3.org/2000/svg">
<g style="mix-blend-mode:multiply">
<rect x="0.5" y="0.5" width="63" height="21" rx="10.5" fill="#ECFDF3"/>
<path d="M16 8L10.5 13.5L8 11" stroke="#17B26A" stroke-width="1.5" stroke-linecap="round" stroke-linejoin="round"/>
<path d="M23.5798 15.084C23.4038 15.084 23.2678 15.036 23.1718 14.94C23.0758 14.836 23.0278 14.692 23.0278 14.508V7.104C23.0278 6.92 23.0758 6.78 23.1718 6.684C23.2758 6.588 23.4158 6.54 23.5918 6.54H26.4478C27.3598 6.54 28.0598 6.756 28.5478 7.188C29.0438 7.612 29.2918 8.216 29.2918 9C29.2918 9.512 29.1798 9.952 28.9558 10.32C28.7318 10.68 28.4078 10.956 27.9838 11.148C27.5598 11.34 27.0478 11.436 26.4478 11.436L26.5678 11.268H26.8318C27.1518 11.268 27.4278 11.348 27.6598 11.508C27.8998 11.668 28.1118 11.924 28.2958 12.276L29.3998 14.304C29.4718 14.432 29.5038 14.556 29.4958 14.676C29.4878 14.796 29.4438 14.896 29.3638 14.976C29.2838 15.048 29.1678 15.084 29.0158 15.084C28.8558 15.084 28.7278 15.052 28.6318 14.988C28.5358 14.916 28.4518 14.812 28.3798 14.676L27.0838 12.3C26.9078 11.964 26.7078 11.744 26.4838 11.64C26.2598 11.528 25.9598 11.472 25.5838 11.472H24.1438V14.508C24.1438 14.692 24.0958 14.836 23.9998 14.94C23.9118 15.036 23.7718 15.084 23.5798 15.084ZM24.1438 10.608H26.2678C26.9078 10.608 27.3878 10.476 27.7078 10.212C28.0278 9.94 28.1878 9.544 28.1878 9.024C28.1878 8.504 28.0278 8.112 27.7078 7.848C27.3878 7.584 26.9078 7.452 26.2678 7.452H24.1438V10.608ZM33.5174 15.108C32.8854 15.108 32.3414 14.988 31.8854 14.748C31.4374 14.5 31.0894 14.152 30.8414 13.704C30.5934 13.248 30.4694 12.712 30.4694 12.096C30.4694 11.488 30.5894 10.956 30.8294 10.5C31.0774 10.044 31.4134 9.688 31.8374 9.432C32.2694 9.176 32.7614 9.048 33.3134 9.048C33.7054 9.048 34.0574 9.116 34.3694 9.252C34.6894 9.38 34.9614 9.568 35.1854 9.816C35.4094 10.064 35.5774 10.368 35.6894 10.728C35.8094 11.08 35.8694 11.48 35.8694 11.928C35.8694 12.056 35.8294 12.156 35.7494 12.228C35.6774 12.292 35.5694 12.324 35.4254 12.324H31.3214V11.628H35.1494L34.9454 11.796C34.9454 11.38 34.8814 11.028 34.7534 10.74C34.6334 10.444 34.4534 10.22 34.2134 10.068C33.9814 9.916 33.6894 9.84 33.3374 9.84C32.9534 9.84 32.6254 9.932 32.3534 10.116C32.0814 10.292 31.8734 10.544 31.7294 10.872C31.5854 11.192 31.5134 11.564 31.5134 11.988V12.06C31.5134 12.78 31.6854 13.324 32.0294 13.692C32.3734 14.06 32.8694 14.244 33.5174 14.244C33.7734 14.244 34.0334 14.212 34.2974 14.148C34.5694 14.084 34.8294 13.968 35.0774 13.8C35.1974 13.728 35.3054 13.696 35.4014 13.704C35.5054 13.704 35.5894 13.736 35.6534 13.8C35.7174 13.856 35.7574 13.928 35.7734 14.016C35.7894 14.096 35.7774 14.184 35.7374 14.28C35.6974 14.376 35.6214 14.46 35.5094 14.532C35.2454 14.716 34.9294 14.86 34.5614 14.964C34.2014 15.06 33.8534 15.108 33.5174 15.108ZM39.0876 15.108C38.6876 15.108 38.3236 15.028 37.9956 14.868C37.6756 14.708 37.4236 14.492 37.2396 14.22C37.0636 13.948 36.9756 13.644 36.9756 13.308C36.9756 12.876 37.0836 12.536 37.2996 12.288C37.5156 12.04 37.8796 11.864 38.3916 11.76C38.9036 11.648 39.5916 11.592 40.4556 11.592H41.0196V12.288H40.4796C39.8636 12.288 39.3756 12.316 39.0156 12.372C38.6636 12.428 38.4156 12.528 38.2716 12.672C38.1276 12.808 38.0556 13 38.0556 13.248C38.0556 13.56 38.1636 13.816 38.3796 14.016C38.6036 14.216 38.9076 14.316 39.2916 14.316C39.5956 14.316 39.8636 14.244 40.0956 14.1C40.3276 13.948 40.5116 13.748 40.6476 13.5C40.7836 13.244 40.8516 12.952 40.8516 12.624V11.244C40.8516 10.772 40.7556 10.432 40.5636 10.224C40.3716 10.008 40.0476 9.9 39.5916 9.9C39.3276 9.9 39.0556 9.936 38.7756 10.008C38.4956 10.08 38.2036 10.192 37.8996 10.344C37.7796 10.4 37.6756 10.42 37.5876 10.404C37.4996 10.38 37.4276 10.332 37.3716 10.26C37.3236 10.18 37.2956 10.096 37.2876 10.008C37.2876 9.912 37.3076 9.82 37.3476 9.732C37.3956 9.644 37.4756 9.58 37.5876 9.54C37.9396 9.364 38.2876 9.24 38.6316 9.168C38.9836 9.088 39.3116 9.048 39.6156 9.048C40.1356 9.048 40.5636 9.132 40.8996 9.3C41.2356 9.46 41.4876 9.712 41.6556 10.056C41.8236 10.392 41.9076 10.824 41.9076 11.352V14.52C41.9076 14.704 41.8636 14.844 41.7756 14.94C41.6876 15.036 41.5596 15.084 41.3916 15.084C41.2316 15.084 41.1036 15.036 41.0076 14.94C40.9196 14.844 40.8756 14.704 40.8756 14.52V13.668H40.9836C40.9196 13.964 40.7996 14.22 40.6236 14.436C40.4476 14.652 40.2276 14.82 39.9636 14.94C39.7076 15.052 39.4156 15.108 39.0876 15.108ZM45.858 15.108C45.346 15.108 44.894 14.988 44.502 14.748C44.118 14.5 43.818 14.148 43.602 13.692C43.386 13.228 43.278 12.688 43.278 12.072C43.278 11.448 43.382 10.912 43.59 10.464C43.806 10.008 44.106 9.66 44.49 9.42C44.882 9.172 45.338 9.048 45.858 9.048C46.378 9.048 46.826 9.18 47.202 9.444C47.578 9.7 47.83 10.044 47.958 10.476H47.826V7.008C47.826 6.824 47.87 6.688 47.958 6.6C48.054 6.504 48.19 6.456 48.366 6.456C48.542 6.456 48.678 6.504 48.774 6.6C48.87 6.688 48.918 6.824 48.918 7.008V14.52C48.918 14.704 48.87 14.844 48.774 14.94C48.678 15.036 48.542 15.084 48.366 15.084C48.198 15.084 48.066 15.036 47.97 14.94C47.874 14.844 47.826 14.704 47.826 14.52V13.428L47.958 13.644C47.838 14.092 47.586 14.448 47.202 14.712C46.826 14.976 46.378 15.108 45.858 15.108ZM46.11 14.244C46.462 14.244 46.766 14.16 47.022 13.992C47.286 13.824 47.486 13.58 47.622 13.26C47.766 12.94 47.838 12.544 47.838 12.072C47.838 11.368 47.682 10.832 47.37 10.464C47.058 10.096 46.638 9.912 46.11 9.912C45.766 9.912 45.462 9.996 45.198 10.164C44.942 10.324 44.742 10.564 44.598 10.884C44.454 11.204 44.382 11.6 44.382 12.072C44.382 12.776 44.538 13.316 44.85 13.692C45.17 14.06 45.59 14.244 46.11 14.244ZM52.013 17.244C51.885 17.244 51.777 17.208 51.689 17.136C51.609 17.072 51.561 16.98 51.545 16.86C51.537 16.748 51.561 16.628 51.617 16.5L52.433 14.652V15.108L50.165 9.828C50.109 9.692 50.089 9.568 50.105 9.456C50.121 9.344 50.173 9.252 50.261 9.18C50.357 9.108 50.485 9.072 50.645 9.072C50.781 9.072 50.889 9.104 50.969 9.168C51.049 9.232 51.125 9.344 51.197 9.504L53.081 14.148H52.745L54.665 9.504C54.729 9.344 54.805 9.232 54.893 9.168C54.981 9.104 55.101 9.072 55.253 9.072C55.389 9.072 55.493 9.108 55.565 9.18C55.645 9.252 55.693 9.344 55.709 9.456C55.725 9.568 55.701 9.688 55.637 9.816L52.613 16.812C52.533 16.98 52.449 17.092 52.361 17.148C52.281 17.212 52.165 17.244 52.013 17.244Z" fill="#067647"/>
<rect x="0.5" y="0.5" width="63" height="21" rx="10.5" stroke="#ABEFC6"/>
</g>
</svg>
