<svg width="21" height="20" viewBox="0 0 21 20" fill="none" xmlns="http://www.w3.org/2000/svg">
<g clip-path="url(#clip0_4320_32765)">
<path opacity="0.4" d="M14.69 0H6.31C2.67 0 0.5 2.17 0.5 5.81V14.18C0.5 17.83 2.67 20 6.31 20H14.68C18.32 20 20.49 17.83 20.49 14.19V5.81C20.5 2.17 18.33 0 14.69 0Z" fill="white"/>
<path d="M14.5 9.25H11.25V6C11.25 5.59 10.91 5.25 10.5 5.25C10.09 5.25 9.75 5.59 9.75 6V9.25H6.5C6.09 9.25 5.75 9.59 5.75 10C5.75 10.41 6.09 10.75 6.5 10.75H9.75V14C9.75 14.41 10.09 14.75 10.5 14.75C10.91 14.75 11.25 14.41 11.25 14V10.75H14.5C14.91 10.75 15.25 10.41 15.25 10C15.25 9.59 14.91 9.25 14.5 9.25Z" fill="white"/>
</g>
<defs>
<clipPath id="clip0_4320_32765">
<rect width="20" height="20" fill="white" transform="translate(0.5)"/>
</clipPath>
</defs>
</svg>
