<svg width="20" height="20" viewBox="0 0 20 20" fill="none" xmlns="http://www.w3.org/2000/svg">
<path opacity="0.4" d="M5.1099 3.9593L14.1299 0.949301C18.1799 -0.400699 20.3799 1.8093 19.0399 5.8593L16.0299 14.8793C14.0099 20.9493 10.6899 20.9493 8.6699 14.8793L7.7799 12.1993L5.0999 11.3093C-0.960097 9.2993 -0.960097 5.9893 5.1099 3.9593Z" fill="#7E8FAA"/>
<path d="M10.1201 9.63055L13.9301 5.81055L10.1201 9.63055Z" fill="#7E8FAA"/>
<path d="M10.1201 10.38C9.93006 10.38 9.74006 10.31 9.59006 10.16C9.30006 9.87 9.30006 9.39 9.59006 9.1L13.3901 5.28C13.6801 4.99 14.1601 4.99 14.4501 5.28C14.7401 5.57 14.7401 6.05 14.4501 6.34L10.6501 10.16C10.5001 10.3 10.3101 10.38 10.1201 10.38Z" fill="#7E8FAA"/>
</svg>
